<svg width="14" height="16" viewBox="0 0 14 16" fill="red" xmlns="http://www.w3.org/2000/svg">
<path d="M13.2245 1.00001H9.55102L9.26327 0.41563C9.20231 0.290697 9.10841 0.185606 8.99214 0.11218C8.87586 0.0387537 8.74183 -9.46239e-05 8.6051 5.47897e-06H5.10612C4.96971 -0.00052985 4.8359 0.0381736 4.72004 0.111682C4.60418 0.18519 4.51095 0.290529 4.45102 0.41563L4.16327 1.00001H0.489796C0.359894 1.00001 0.235312 1.05268 0.143458 1.14645C0.0516034 1.24022 0 1.3674 0 1.5L0 2.5C0 2.63261 0.0516034 2.75979 0.143458 2.85356C0.235312 2.94733 0.359894 3 0.489796 3H13.2245C13.3544 3 13.479 2.94733 13.5708 2.85356C13.6627 2.75979 13.7143 2.63261 13.7143 2.5V1.5C13.7143 1.3674 13.6627 1.24022 13.5708 1.14645C13.479 1.05268 13.3544 1.00001 13.2245 1.00001ZM1.62857 14.5938C1.65193 14.9746 1.81658 15.332 2.089 15.5932C2.36141 15.8545 2.72112 16 3.0949 16H10.6194C10.9932 16 11.3529 15.8545 11.6253 15.5932C11.8977 15.332 12.0624 14.9746 12.0857 14.5938L12.7347 4H0.979592L1.62857 14.5938Z"/>
</svg>